# xmcd
#
# Track frame offsets: 
#        150
#        15003
#        35273
#        54313
#        84377
#        100673
#        113942
#        130337
#
# Disc length: 1965 seconds
#
# Revision: 0
# Processed by: cddbd v1.5.2PL0 Copyright (c) Steve Scherf et al.
# Submitted via: ExactAudioCopy v0.99pb4
#
DISCID=5107ab08
DTITLE=Janesville - Lookin' For A Cowboy
DYEAR=2007
DGENRE=Country
TTITLE0=Lookin' for a Cowboy
TTITLE1=The Bruno Song
TTITLE2=Hard to Say Yes
TTITLE3=Linda Lou
TTITLE4=Just a Guy
TTITLE5=Rancho Destructo
TTITLE6=Great Divide
TTITLE7=Worth the Wait
EXTD=
EXTT0=
EXTT1=
EXTT2=
EXTT3=
EXTT4=
EXTT5=
EXTT6=
EXTT7=
PLAYORDER=
